<svg width="1200" height="630" viewBox="0 0 1200 630" xmlns="http://www.w3.org/2000/svg" aria-labelledby="titleId descId">
    <title id="titleId">The Signal and the Noise</title>
    <desc id="descId">An abstract representation of finding clarity in chaos. A single, clear, glowing sine wave cuts through a field of chaotic, noisy, static-like lines, symbolizing the extraction of a clear signal from overwhelming noise.</desc>
    <defs>
        <radialGradient id="grad1" cx="50%" cy="50%" r="50%" fx="50%" fy="50%">
            <stop offset="0%" style="stop-color:#0F1A2E;stop-opacity:1" />
            <stop offset="100%" style="stop-color:#2A3D5E;stop-opacity:1" />
        </radialGradient>
        <filter id="faint-texture" x="0" y="0" width="100%" height="100%">
            <feTurbulence type="fractalNoise" baseFrequency="0.6" numOctaves="2" result="noise"/>
            <feColorMatrix in="noise" type="matrix" values="1 0 0 0 0  0 1 0 0 0  0 0 1 0 0  0 0 0 -0.4 0.3" result="darkNoise"/>
            <feBlend in="SourceGraphic" in2="darkNoise" mode="multiply"/>
        </filter>
        <filter id="glow" x="-50%" y="-50%" width="200%" height="200%">
            <feGaussianBlur stdDeviation="6" result="coloredBlur"/>
            <feMerge>
                <feMergeNode in="coloredBlur"/>
                <feMergeNode in="SourceGraphic"/>
            </feMerge>
        </filter>
    </defs>
    <rect width="100%" height="100%" fill="url(#grad1)" filter="url(#faint-texture)" />

    <!-- Noise -->
    <g opacity="0.15" stroke-width="1">
        <path d="M0 100 Q 150 50, 300 100 T 600 100 T 900 100 T 1200 100" stroke="#F5F5F5" fill="none" />
        <path d="M0 150 Q 100 200, 200 150 T 400 150 T 600 150 T 800 150 T 1000 150 T 1200 150" stroke="#F5F5F5" fill="none" />
        <path d="M0 200 Q 50 150, 100 200 T 200 200 T 300 200 T 400 200 T 500 200 T 600 200 T 700 200 T 800 200 T 900 200 T 1000 200 T 1100 200 T 1200 200" stroke="#F5F5F5" fill="none" />
        <path d="M0 400 Q 200 500, 400 400 T 800 400 T 1200 400" stroke="#F5F5F5" fill="none" />
        <path d="M0 500 Q 150 450, 300 500 T 600 500 T 900 500 T 1200 500" stroke="#F5F5F5" fill="none" />
    </g>

    <!-- Signal -->
    <path d="M 50 315 Q 300 115, 600 315 T 1150 315" stroke="#C8A25C" stroke-width="8" fill="none" filter="url(#glow)" stroke-linecap="round">
        <animate attributeName="stroke-dasharray" from="0, 2000" to="2000, 0" dur="3s" begin="0s" repeatCount="1" fill="freeze" />
    </path>
    
    <rect x="0" y="0" width="15" height="630" fill="#C8A25C" />
    <text x="55" y="70" dominant-baseline="middle" text-anchor="start" font-family="'Lato', 'Helvetica Neue', sans-serif" font-size="18" font-weight="700" fill="#C8A25C" letter-spacing="2" opacity="0.8">VOL. 1 | ISSUE NO. 3</text>
    <text x="55" y="560" dominant-baseline="middle" text-anchor="start" font-family="'Playfair Display', Georgia, serif" font-size="48" font-weight="700" fill="#F5F5F5">The Signal and the Noise</text>
    <text x="1145" y="570" dominant-baseline="middle" text-anchor="end" font-family="'Playfair Display', Georgia, serif" font-size="32" font-weight="700" fill="#C8A25C" opacity="0.6">AJS</text>
</svg>