<svg width="1200" height="630" viewBox="0 0 1200 630" fill="none" xmlns="http://www.w3.org/2000/svg">
  <defs>
    <radialGradient id="bg-grad" cx="50%" cy="50%" r="50%" fx="50%" fy="50%">
      <stop offset="0%" style="stop-color:#2a2a2a;"/>
      <stop offset="100%" style="stop-color:#1C1C1C;"/>
    </radialGradient>
    <filter id="glow-filter" x="-40%" y="-40%" width="180%" height="180%">
      <feGaussianBlur stdDeviation="8" result="glow"/>
    </filter>
  </defs>
  <rect width="1200" height="630" fill="url(#bg-grad)"/>
  <g transform="translate(600, 315) scale(1.2)">
    <!-- Unfurled Scroll -->
    <path d="M -250,-150 Q -230,-160 -200,-160 L 200,-160 Q 230,-160 250,-150 L 250,150 Q 230,160 200,160 L -200,160 Q -230,160 -250,150 Z" fill="#E6E0D2" opacity="0.9"/>
    <path d="M -250,-150 Q -270,-150 -270,-120 L -270,120 Q -270,150 -250,150 M 250,-150 Q 270,-150 270,-120 L 270,120 Q 270,150 250,150" fill="none" stroke="#A49B8A" stroke-width="4"/>

    <!-- Map lines -->
    <g stroke="#A49B8A" stroke-width="1" stroke-opacity="0.6">
      <path d="M -200,-100 C -150,-80 -50,-120 0,-100 S 100,-60 200,-80" fill="none"/>
      <path d="M -200,50 C -100,80 0,20 100,50 S 180,80 200,70" fill="none"/>
      <path d="M -150,150 L -130,-150" stroke-dasharray="4 4"/>
      <path d="M 50,150 L 70,-150" stroke-dasharray="4 4"/>
    </g>

    <!-- Laurel Wreath -->
    <g fill="#A49B8A" opacity="0.15" filter="url(#glow-filter)">
      <path d="M -300,0 C -300,-150 -100,-200 0,-200 C 100,-200 300,-150 300,0 C 300,150 100,200 0,200 C -100,200 -300,150 -300,0 Z"/>
    </g>
  </g>
  <desc>A classical, unfurled scroll with faint map-like lines, representing a career plan. It is framed by a subtle, glowing laurel wreath, symbolizing strategy and victory.</desc>
</svg>